<mxfile host="app.diagrams.net" agent="Mozilla/5.0 (Windows NT 10.0; Win64; x64) AppleWebKit/537.36 (KHTML, like Gecko) Chrome/139.0.0.0 Safari/537.36" version="28.1.0">
  <diagram name="第 1 页" id="5MIVowQfPai6-ZyxhP-e">
    <mxGraphModel dx="1188" dy="648" grid="1" gridSize="10" guides="1" tooltips="1" connect="1" arrows="1" fold="1" page="1" pageScale="1" pageWidth="827" pageHeight="1169" math="0" shadow="0">
      <root>
        <mxCell id="0" />
        <mxCell id="1" parent="0" />
        <mxCell id="GCfqX2LuTIKi2kPbE9en-7" value="" style="edgeStyle=orthogonalEdgeStyle;rounded=0;orthogonalLoop=1;jettySize=auto;html=1;" edge="1" parent="1" source="GCfqX2LuTIKi2kPbE9en-1" target="GCfqX2LuTIKi2kPbE9en-6">
          <mxGeometry relative="1" as="geometry" />
        </mxCell>
        <mxCell id="GCfqX2LuTIKi2kPbE9en-1" value="开始" style="strokeWidth=2;html=1;shape=mxgraph.flowchart.start_1;whiteSpace=wrap;" vertex="1" parent="1">
          <mxGeometry x="381" y="30" width="80" height="40" as="geometry" />
        </mxCell>
        <mxCell id="GCfqX2LuTIKi2kPbE9en-9" value="" style="edgeStyle=orthogonalEdgeStyle;rounded=0;orthogonalLoop=1;jettySize=auto;html=1;" edge="1" parent="1" source="GCfqX2LuTIKi2kPbE9en-6" target="GCfqX2LuTIKi2kPbE9en-8">
          <mxGeometry relative="1" as="geometry" />
        </mxCell>
        <mxCell id="GCfqX2LuTIKi2kPbE9en-10" value="Y" style="edgeLabel;html=1;align=center;verticalAlign=middle;resizable=0;points=[];" vertex="1" connectable="0" parent="GCfqX2LuTIKi2kPbE9en-9">
          <mxGeometry x="0.2837" y="-3" relative="1" as="geometry">
            <mxPoint as="offset" />
          </mxGeometry>
        </mxCell>
        <mxCell id="GCfqX2LuTIKi2kPbE9en-16" value="" style="edgeStyle=orthogonalEdgeStyle;rounded=0;orthogonalLoop=1;jettySize=auto;html=1;" edge="1" parent="1" source="GCfqX2LuTIKi2kPbE9en-6" target="GCfqX2LuTIKi2kPbE9en-15">
          <mxGeometry relative="1" as="geometry" />
        </mxCell>
        <mxCell id="GCfqX2LuTIKi2kPbE9en-17" value="N" style="edgeLabel;html=1;align=center;verticalAlign=middle;resizable=0;points=[];" vertex="1" connectable="0" parent="GCfqX2LuTIKi2kPbE9en-16">
          <mxGeometry x="-0.3866" relative="1" as="geometry">
            <mxPoint as="offset" />
          </mxGeometry>
        </mxCell>
        <mxCell id="GCfqX2LuTIKi2kPbE9en-6" value="年付息次数=0" style="rhombus;whiteSpace=wrap;html=1;strokeWidth=2;" vertex="1" parent="1">
          <mxGeometry x="371" y="130" width="100" height="70" as="geometry" />
        </mxCell>
        <mxCell id="GCfqX2LuTIKi2kPbE9en-12" value="" style="edgeStyle=orthogonalEdgeStyle;rounded=0;orthogonalLoop=1;jettySize=auto;html=1;" edge="1" parent="1" source="GCfqX2LuTIKi2kPbE9en-8" target="GCfqX2LuTIKi2kPbE9en-11">
          <mxGeometry relative="1" as="geometry" />
        </mxCell>
        <mxCell id="GCfqX2LuTIKi2kPbE9en-8" value="中间不付息值生成一条现金流" style="whiteSpace=wrap;html=1;strokeWidth=2;" vertex="1" parent="1">
          <mxGeometry x="625" y="135" width="120" height="60" as="geometry" />
        </mxCell>
        <mxCell id="GCfqX2LuTIKi2kPbE9en-14" value="" style="edgeStyle=orthogonalEdgeStyle;rounded=0;orthogonalLoop=1;jettySize=auto;html=1;" edge="1" parent="1" source="GCfqX2LuTIKi2kPbE9en-11" target="GCfqX2LuTIKi2kPbE9en-13">
          <mxGeometry relative="1" as="geometry" />
        </mxCell>
        <mxCell id="GCfqX2LuTIKi2kPbE9en-30" value="" style="edgeStyle=orthogonalEdgeStyle;rounded=0;orthogonalLoop=1;jettySize=auto;html=1;entryX=1;entryY=0.5;entryDx=0;entryDy=0;exitX=0.5;exitY=1;exitDx=0;exitDy=0;" edge="1" parent="1" source="GCfqX2LuTIKi2kPbE9en-11" target="GCfqX2LuTIKi2kPbE9en-13">
          <mxGeometry relative="1" as="geometry">
            <mxPoint x="731" y="400" as="targetPoint" />
          </mxGeometry>
        </mxCell>
        <mxCell id="GCfqX2LuTIKi2kPbE9en-11" value="inte_start_date=起息日inte_end_date=实际到期日-1天" style="whiteSpace=wrap;html=1;strokeWidth=2;" vertex="1" parent="1">
          <mxGeometry x="615" y="260" width="140" height="60" as="geometry" />
        </mxCell>
        <mxCell id="GCfqX2LuTIKi2kPbE9en-28" value="" style="edgeStyle=orthogonalEdgeStyle;rounded=0;orthogonalLoop=1;jettySize=auto;html=1;" edge="1" parent="1" source="GCfqX2LuTIKi2kPbE9en-13" target="GCfqX2LuTIKi2kPbE9en-27">
          <mxGeometry relative="1" as="geometry" />
        </mxCell>
        <mxCell id="GCfqX2LuTIKi2kPbE9en-13" value="根据息规则生成最后一期现金流" style="rounded=1;whiteSpace=wrap;html=1;strokeWidth=2;" vertex="1" parent="1">
          <mxGeometry x="361" y="842" width="120" height="60" as="geometry" />
        </mxCell>
        <mxCell id="GCfqX2LuTIKi2kPbE9en-19" value="" style="edgeStyle=orthogonalEdgeStyle;rounded=0;orthogonalLoop=1;jettySize=auto;html=1;" edge="1" parent="1" source="GCfqX2LuTIKi2kPbE9en-15" target="GCfqX2LuTIKi2kPbE9en-18">
          <mxGeometry relative="1" as="geometry" />
        </mxCell>
        <mxCell id="GCfqX2LuTIKi2kPbE9en-15" value="每期月数=12&lt;span style=&quot;background-color: transparent; color: light-dark(rgb(0, 0, 0), rgb(255, 255, 255));&quot;&gt;÷年付息次数&lt;/span&gt;&lt;br&gt;&lt;span class=&quot;lark-record-clipboard&quot; data-lark-record-format=&quot;docx/text&quot; data-lark-record-data=&quot;{&amp;quot;rootId&amp;quot;:&amp;quot;UaSydFmrdorRRYxYeVCctr97nKg&amp;quot;,&amp;quot;text&amp;quot;:{&amp;quot;initialAttributedTexts&amp;quot;:{&amp;quot;text&amp;quot;:{&amp;quot;0&amp;quot;:&amp;quot;÷ &amp;quot;},&amp;quot;attribs&amp;quot;:{&amp;quot;0&amp;quot;:&amp;quot;*0+2&amp;quot;}},&amp;quot;apool&amp;quot;:{&amp;quot;numToAttrib&amp;quot;:{&amp;quot;0&amp;quot;:[&amp;quot;author&amp;quot;,&amp;quot;7448941819208990739&amp;quot;]},&amp;quot;nextNum&amp;quot;:1}},&amp;quot;type&amp;quot;:&amp;quot;text&amp;quot;,&amp;quot;referenceRecordMap&amp;quot;:{},&amp;quot;extra&amp;quot;:{&amp;quot;channel&amp;quot;:&amp;quot;saas&amp;quot;,&amp;quot;isEqualBlockSelection&amp;quot;:false,&amp;quot;pasteRandomId&amp;quot;:&amp;quot;e74e2f4c-afd6-4dc6-8306-b379933d5fe6&amp;quot;,&amp;quot;mention_page_title&amp;quot;:{},&amp;quot;external_mention_url&amp;quot;:{}},&amp;quot;isKeepQuoteContainer&amp;quot;:false,&amp;quot;isFromCode&amp;quot;:false,&amp;quot;selection&amp;quot;:[{&amp;quot;id&amp;quot;:103,&amp;quot;type&amp;quot;:&amp;quot;text&amp;quot;,&amp;quot;selection&amp;quot;:{&amp;quot;start&amp;quot;:6,&amp;quot;end&amp;quot;:8},&amp;quot;recordId&amp;quot;:&amp;quot;S0H6dlG8koB8DIxgdnQcGW4onNf&amp;quot;}],&amp;quot;payloadMap&amp;quot;:{},&amp;quot;isCut&amp;quot;:false}&quot;&gt;&lt;/span&gt;" style="whiteSpace=wrap;html=1;strokeWidth=2;" vertex="1" parent="1">
          <mxGeometry x="361" y="260" width="120" height="60" as="geometry" />
        </mxCell>
        <mxCell id="GCfqX2LuTIKi2kPbE9en-21" value="" style="edgeStyle=orthogonalEdgeStyle;rounded=0;orthogonalLoop=1;jettySize=auto;html=1;" edge="1" parent="1" target="GCfqX2LuTIKi2kPbE9en-20">
          <mxGeometry relative="1" as="geometry">
            <mxPoint x="421" y="519.9999999999998" as="sourcePoint" />
          </mxGeometry>
        </mxCell>
        <mxCell id="GCfqX2LuTIKi2kPbE9en-18" value="第一期&amp;nbsp; inte_start_date=起息日inte_end_date=inte_start_date+每期月数-1" style="whiteSpace=wrap;html=1;strokeWidth=2;" vertex="1" parent="1">
          <mxGeometry x="328.5" y="370" width="185" height="60" as="geometry" />
        </mxCell>
        <mxCell id="GCfqX2LuTIKi2kPbE9en-23" value="" style="edgeStyle=orthogonalEdgeStyle;rounded=0;orthogonalLoop=1;jettySize=auto;html=1;" edge="1" parent="1" source="GCfqX2LuTIKi2kPbE9en-20" target="GCfqX2LuTIKi2kPbE9en-22">
          <mxGeometry relative="1" as="geometry" />
        </mxCell>
        <mxCell id="GCfqX2LuTIKi2kPbE9en-24" value="Y" style="edgeLabel;html=1;align=center;verticalAlign=middle;resizable=0;points=[];" vertex="1" connectable="0" parent="GCfqX2LuTIKi2kPbE9en-23">
          <mxGeometry x="-0.2444" y="1" relative="1" as="geometry">
            <mxPoint as="offset" />
          </mxGeometry>
        </mxCell>
        <mxCell id="GCfqX2LuTIKi2kPbE9en-34" value="" style="edgeStyle=orthogonalEdgeStyle;rounded=0;orthogonalLoop=1;jettySize=auto;html=1;" edge="1" parent="1" source="GCfqX2LuTIKi2kPbE9en-20" target="GCfqX2LuTIKi2kPbE9en-33">
          <mxGeometry relative="1" as="geometry" />
        </mxCell>
        <mxCell id="GCfqX2LuTIKi2kPbE9en-35" value="N" style="edgeLabel;html=1;align=center;verticalAlign=middle;resizable=0;points=[];" vertex="1" connectable="0" parent="GCfqX2LuTIKi2kPbE9en-34">
          <mxGeometry x="-0.148" y="1" relative="1" as="geometry">
            <mxPoint as="offset" />
          </mxGeometry>
        </mxCell>
        <mxCell id="GCfqX2LuTIKi2kPbE9en-20" value="inte_end_date&amp;gt;=实际到期日-1" style="rhombus;whiteSpace=wrap;html=1;strokeWidth=2;" vertex="1" parent="1">
          <mxGeometry x="346" y="580" width="150" height="80" as="geometry" />
        </mxCell>
        <mxCell id="GCfqX2LuTIKi2kPbE9en-22" value="inte_end_date=实际到期日-1" style="whiteSpace=wrap;html=1;strokeWidth=2;" vertex="1" parent="1">
          <mxGeometry x="361" y="718" width="120" height="60" as="geometry" />
        </mxCell>
        <mxCell id="GCfqX2LuTIKi2kPbE9en-27" value="结束" style="ellipse;whiteSpace=wrap;html=1;rounded=1;strokeWidth=2;" vertex="1" parent="1">
          <mxGeometry x="381" y="962" width="80" height="80" as="geometry" />
        </mxCell>
        <mxCell id="GCfqX2LuTIKi2kPbE9en-37" value="" style="edgeStyle=orthogonalEdgeStyle;rounded=0;orthogonalLoop=1;jettySize=auto;html=1;exitX=0.5;exitY=0;exitDx=0;exitDy=0;" edge="1" parent="1" source="GCfqX2LuTIKi2kPbE9en-33">
          <mxGeometry relative="1" as="geometry">
            <mxPoint x="420" y="570" as="targetPoint" />
            <Array as="points">
              <mxPoint x="156" y="500" />
              <mxPoint x="420" y="500" />
            </Array>
          </mxGeometry>
        </mxCell>
        <mxCell id="GCfqX2LuTIKi2kPbE9en-33" value="根据息规则生成当期期现金流&lt;span style=&quot;background-color: transparent;&quot;&gt;&amp;nbsp;计息周期+1&lt;/span&gt;&lt;div&gt;&amp;nbsp;inte_start_date=上一期inte_end_date+1&lt;/div&gt;&lt;div&gt;&amp;nbsp;inte_end_date=inte_start_date+每期月数-1&lt;/div&gt;" style="whiteSpace=wrap;html=1;strokeWidth=2;" vertex="1" parent="1">
          <mxGeometry x="60" y="560" width="191" height="120" as="geometry" />
        </mxCell>
      </root>
    </mxGraphModel>
  </diagram>
</mxfile>
